<?xml version="1.0" encoding="UTF-8" standalone="no"?>
<!-- Generator: Adobe Illustrator 14.0.0, SVG Export Plug-In . SVG Version: 6.00 Build 43363)  -->

<svg
   xmlns:dc="http://purl.org/dc/elements/1.1/"
   xmlns:cc="http://creativecommons.org/ns#"
   xmlns:rdf="http://www.w3.org/1999/02/22-rdf-syntax-ns#"
   xmlns:svg="http://www.w3.org/2000/svg"
   xmlns="http://www.w3.org/2000/svg"
   xmlns:sodipodi="http://sodipodi.sourceforge.net/DTD/sodipodi-0.dtd"
   xmlns:inkscape="http://www.inkscape.org/namespaces/inkscape"
   version="1.0"
   id="Layer_1"
   x="0px"
   y="0px"
   width="300"
   height="256.22101"
   viewBox="0 0 300 256.22102"
   enable-background="new 0 0 100 85.407"
   xml:space="preserve"
   inkscape:version="0.48.3.1 r9886"
   sodipodi:docname="brain.svg"><title
   id="title2986">Brain</title><metadata
   id="metadata9"><rdf:RDF><cc:Work
       rdf:about=""><dc:format>image/svg+xml</dc:format><dc:type
         rdf:resource="http://purl.org/dc/dcmitype/StillImage" /><dc:title>Brain</dc:title><dc:date>03/07/2013</dc:date><dc:creator><cc:Agent><dc:title>edited by Paul Sherman</dc:title></cc:Agent></dc:creator><dc:rights><cc:Agent><dc:title>PD</dc:title></cc:Agent></dc:rights><dc:publisher><cc:Agent><dc:title>WPClipart</dc:title></cc:Agent></dc:publisher><dc:subject><rdf:Bag><rdf:li>brain</rdf:li><rdf:li>anatomy</rdf:li><rdf:li>medical</rdf:li></rdf:Bag></dc:subject><cc:license
         rdf:resource="http://creativecommons.org/licenses/publicdomain/" /></cc:Work><cc:License
       rdf:about="http://creativecommons.org/licenses/publicdomain/"><cc:permits
         rdf:resource="http://creativecommons.org/ns#Reproduction" /><cc:permits
         rdf:resource="http://creativecommons.org/ns#Distribution" /><cc:permits
         rdf:resource="http://creativecommons.org/ns#DerivativeWorks" /></cc:License></rdf:RDF></metadata><defs
   id="defs7" /><sodipodi:namedview
   pagecolor="#ffffff"
   bordercolor="#666666"
   borderopacity="1"
   objecttolerance="10"
   gridtolerance="10"
   guidetolerance="10"
   inkscape:pageopacity="0"
   inkscape:pageshadow="2"
   inkscape:window-width="886"
   inkscape:window-height="888"
   id="namedview5"
   showgrid="false"
   fit-margin-top="0"
   fit-margin-left="0"
   fit-margin-right="0"
   fit-margin-bottom="0"
   inkscape:zoom="0.97968464"
   inkscape:cx="-29.9466"
   inkscape:cy="128.1105"
   inkscape:window-x="518"
   inkscape:window-y="0"
   inkscape:window-maximized="0"
   inkscape:current-layer="Layer_1" />
<path
   d="m 300,128.016 c 0,12.78 -5.01,24.384 -13.155,33.024 -1.398,18.234 -12.951,33.624 -29.055,40.563 v 0.171 c -19.665,11.451 -31.422,30.999 -35.001,54.447 h -18.183 v -54.396 c 0.12,-16.95599 5.454,-27.813 16.632,-34.512 4.089,-2.352 7.806,-5.043 10.974,-8.025 8.298,2.982 15.642,8.826 20.313,17.142 0.972,1.635 2.709,2.556 4.431,2.556 0.834,0 1.704,-0.204 2.487,-0.666 2.49,-1.365 3.375,-4.464 1.977,-6.918 h -0.033 c -5.232,-9.306 -13.188,-16.173 -22.221,-20.262 4.635,-7.125 7.209,-15.609 7.089,-25.8 0,-0.051 0.069,-0.102 0.069,-0.171 0,-4.602 -0.681,-9.081 -1.908,-13.293 10.617,-2.028 19.971,-7.413 26.856,-14.999998 1.908,-2.094 1.77,-5.316 -0.342,-7.191 -2.097,-1.89 -5.265,-1.722 -7.14,0.324 -6,6.528 -14.094,10.991998 -23.295,12.218998 -7.395,-13.700998 -21.147,-23.429998 -37.266,-25.202998 1.074,-8.691001 4.992,-16.443001 10.887,-22.341001 1.944,-1.977 1.944,-5.202 0,-7.161 -1.977,-1.995 -5.25,-1.995 -7.224,0 -7.548,7.554 -12.594,17.64 -13.854,28.872001 -18.933,-2.385 -33.519,-18.456001 -33.552,-38.022001 0,-2.778001 -2.301,-5.094001 -5.028,-5.094001 -2.88,0 -5.13,2.316 -5.13,5.094001 0,3.306 0.324,6.459 0.954,9.561 -7.176,6.207 -16.104,9.342 -25.05,9.342 -4.413,0 -8.844,-0.783 -13.017,-2.301 0,0 -0.069,-0.018 -0.12,-0.033 -5.145,-1.857 -9.867,-4.812 -13.956003,-8.901 -1.959,-1.977 -5.196,-1.977 -7.191,0 -1.995,1.977 -1.995,5.187 0,7.179 4.191,4.176 8.913,7.413 13.938003,9.747 -1.005,12.660001 -8.367003,23.550001 -18.660003,29.667001 -5.946,-9.033 -14.892,-16.188 -25.884,-19.683 -2.745001,-0.852001 -5.589001,0.63 -6.459001,3.306 -0.75,2.676 0.615,5.523 3.324,6.357 8.163001,2.589 14.724001,7.617 19.443001,14.025 -3.168,0.852 -6.423,1.311 -9.882,1.311 0,0 0,0 -0.054,0 h -0.564 c -13.053001,0 -25.050001,5.198998 -33.774001,13.703998 -2.064,1.959 -2.112,5.181 -0.084,7.176 0.969,1.023 2.301,1.533 3.681,1.533 1.161,0 2.436,-0.477 3.426,-1.431 6.921,-6.75 16.359,-10.821 26.754001,-10.821 h 0.546 0.015 0.054 c 24.468,0 44.799003,-18.221998 47.985003,-41.837999 3.477,0.75 6.951,1.158 10.479,1.158 9.936,0 19.956,-3.084 28.389,-9.186 3.084,7.038 7.959,13.188 13.872,17.961001 -6.033,7.431 -9.576,16.257 -10.512,25.286998 -2.541,-0.408 -5.214,-0.63 -7.89,-0.63 -7.668,0 -15.456,1.821 -22.698,5.694 -2.487,1.314 -3.426,4.395 -2.112,6.885 0.921,1.686 2.709,2.676 4.533,2.676 0.834,0 1.584,-0.186 2.316,-0.615 5.829,-3.051 11.931,-4.5 17.961,-4.5 2.691,0 5.349,0.291 7.89,0.834 1.107,10.293 5.556,20.364 13.206,28.374 1.023,1.059 2.334,1.569 3.648,1.569 1.245,0 2.538,-0.462 3.546,-1.398 2.079,-1.959 2.13,-5.148 0.153,-7.176 h -0.033 c -6.801,-7.191 -10.395,-16.323 -10.632,-25.56 0,-0.138 0.033,-0.24 0,-0.393 0,-0.186 0,-0.375 0,-0.564 0,-8.966998 3.102,-17.828998 9.237,-24.950998 6.459,3.222 13.818,5.097 21.609,5.097 0,0 0.033,0.015 0.084,0.015 0,0 0.033,0 0.084,0 21.096,0.069 38.172,17.114998 38.256,38.207998 -4.002,-1.056 -8.127,-1.602 -12.354,-1.602 -6.048,0 -12.183,1.107 -18.096,3.546 -2.625,1.074 -3.87,4.02 -2.811,6.612 1.071,2.589 3.987,3.852 6.594,2.796 4.737,-1.89 9.561,-2.811 14.313,-2.811 3.834,0 7.635,0.579 11.196,1.686 -1.245,5.691 -3.681,10.257 -7.464,14.313 -0.291,0.255 -0.564,0.546 -0.783,0.885 -2.898,2.847 -6.375,5.469 -10.668,8.076 -14.706,8.589 -21.762,24.165 -21.609,43.254 v 54.396 h -17.349 v -51.726 c 0,-18.999 -11.91,-37.017 -26.907,-43.425 -7.158,-2.778 -14.622,-7.431 -20.058,-13.515 -7.752,5.265 -17.058,8.367 -27.063,8.367 -10.038003,0 -19.341003,-3.051 -27.042003,-8.28 -7.668,5.043 -16.923,7.992 -26.820001,7.992 C 21.998996,155.625 -1.3578138e-6,133.572 -1.3578138e-6,106.392 -1.3578138e-6,86.076002 12.284995,68.643001 29.873996,61.143001 c 4.755,-21.681 23.958,-37.902001 47.064001,-37.902001 1.227,0 2.352,0.102 3.495,0.171 C 89.141997,10.683 103.779,2.331 120.36,2.331 c 8.214,0 15.918,2.046 22.683,5.691 C 150.675,2.946 159.807,0 169.638,0 c 12.627,0 24.129,4.926 32.751,12.918 3.612,-0.87 7.344,-1.38 11.247,-1.38 19.512,0 36.381,11.742 43.914,28.560001 19.803,6 34.218,24.372 34.218,46.116001 0,4.362 -0.579,8.571 -1.653,12.576 C 296.286,106.905 300,117.027 300,128.016 z"
   id="path3"
   inkscape:connector-curvature="0" />
</svg>